<svg width="32" height="32" viewBox="0 0 32 32" fill="none" xmlns="http://www.w3.org/2000/svg">
<circle cx="16" cy="16" r="16" fill="white" fill-opacity="0.2"/>
<path d="M21.75 9H9.53125C9.2374 9 9 9.2374 9 9.53125V21.75C9 22.0438 9.2374 22.2812 9.53125 22.2812H21.75C22.0438 22.2812 22.2812 22.0438 22.2812 21.75V9.53125C22.2812 9.2374 22.0438 9 21.75 9ZM20.216 12.8765H19.1552C18.3234 12.8765 18.1624 13.2716 18.1624 13.8526V15.1326H20.1479L19.889 17.1364H18.1624V22.2812H16.0922V17.1381H14.3606V15.1326H16.0922V13.6551C16.0922 11.9401 17.1397 11.0055 18.6704 11.0055C19.4042 11.0055 20.0334 11.0603 20.2177 11.0852V12.8765H20.216Z" fill="white"/>
</svg>
