<svg width="32" height="32" viewBox="0 0 32 32" fill="none" xmlns="http://www.w3.org/2000/svg">
<circle cx="16" cy="16" r="16" fill="white" fill-opacity="0.2"/>
<path d="M15.5753 14.3305V15.3059H14.8613V16.498H15.5753V20.0418H17.043V16.498H18.0276C18.0276 16.498 18.1204 15.9264 18.165 15.301H17.0487V14.4864C17.0487 14.3638 17.2087 14.2002 17.3674 14.2002H18.1664V12.9585H17.0791C15.5392 12.9585 15.5753 14.152 15.5753 14.3305Z" fill="white"/>
<path d="M12.2503 10.8334C11.8746 10.8334 11.5143 10.9827 11.2486 11.2483C10.9829 11.514 10.8337 11.8744 10.8337 12.2501V20.7501C10.8337 21.1258 10.9829 21.4861 11.2486 21.7518C11.5143 22.0175 11.8746 22.1667 12.2503 22.1667H20.7503C21.126 22.1667 21.4864 22.0175 21.7521 21.7518C22.0177 21.4861 22.167 21.1258 22.167 20.7501V12.2501C22.167 11.8744 22.0177 11.514 21.7521 11.2483C21.4864 10.9827 21.126 10.8334 20.7503 10.8334H12.2503ZM12.2503 9.41675H20.7503C21.5018 9.41675 22.2224 9.71526 22.7538 10.2466C23.2851 10.778 23.5837 11.4986 23.5837 12.2501V20.7501C23.5837 21.5015 23.2851 22.2222 22.7538 22.7536C22.2224 23.2849 21.5018 23.5834 20.7503 23.5834H12.2503C11.4989 23.5834 10.7782 23.2849 10.2469 22.7536C9.7155 22.2222 9.41699 21.5015 9.41699 20.7501V12.2501C9.41699 11.4986 9.7155 10.778 10.2469 10.2466C10.7782 9.71526 11.4989 9.41675 12.2503 9.41675Z" fill="white"/>
</svg>
