<svg width="32" height="32" viewBox="0 0 32 32" fill="none" xmlns="http://www.w3.org/2000/svg">
<circle cx="16" cy="16" r="16" fill="white" fill-opacity="0.2"/>
<path fill-rule="evenodd" clip-rule="evenodd" d="M12.8488 8.04919C13.7285 8.00894 14.009 8 16.25 8C18.491 8 18.7715 8.00969 19.6505 8.04919C20.5295 8.08868 21.1295 8.22805 21.6545 8.43001C22.2042 8.63644 22.703 8.95914 23.1155 9.37648C23.5355 9.78562 23.8595 10.2805 24.0665 10.8275C24.2705 11.3492 24.41 11.9454 24.4505 12.8173C24.491 13.693 24.5 13.9717 24.5 16.1978C24.5 18.4246 24.4902 18.7033 24.4505 19.5775C24.4107 20.4494 24.2705 21.0456 24.0665 21.5673C23.8595 22.1144 23.535 22.61 23.1155 23.0198C22.703 23.4371 22.2042 23.7591 21.6545 23.9648C21.1295 24.1675 20.5295 24.3061 19.652 24.3463C18.7715 24.3866 18.491 24.3955 16.25 24.3955C14.009 24.3955 13.7285 24.3858 12.8488 24.3463C11.9713 24.3068 11.3713 24.1675 10.8463 23.9648C10.2957 23.759 9.79687 23.4366 9.3845 23.0198C8.96478 22.6104 8.63999 22.115 8.43275 21.568C8.2295 21.0464 8.09 20.4502 8.0495 19.5782C8.009 18.7025 8 18.4238 8 16.1978C8 13.9709 8.00975 13.6922 8.0495 12.8188C8.08925 11.9454 8.2295 11.3492 8.43275 10.8275C8.64029 10.2805 8.96534 9.78511 9.38525 9.37573C9.79703 8.95877 10.2954 8.63603 10.8455 8.43001C11.3705 8.22805 11.9705 8.08943 12.848 8.04919H12.8488ZM19.5837 9.52478C18.7137 9.48528 18.4528 9.47709 16.25 9.47709C14.0472 9.47709 13.7862 9.48528 12.9162 9.52478C12.1115 9.5613 11.675 9.6947 11.384 9.80723C10.9992 9.95628 10.724 10.1329 10.4353 10.4198C10.1615 10.6844 9.95089 11.0066 9.81875 11.3626C9.7055 11.6517 9.57125 12.0855 9.5345 12.8851C9.49475 13.7496 9.4865 14.009 9.4865 16.1978C9.4865 18.3866 9.49475 18.6459 9.5345 19.5104C9.57125 20.31 9.7055 20.7438 9.81875 21.0329C9.95075 21.3884 10.1615 21.7111 10.4353 21.9757C10.7015 22.2477 11.0263 22.4571 11.384 22.5883C11.675 22.7008 12.1115 22.8342 12.9162 22.8707C13.7862 22.9102 14.0465 22.9184 16.25 22.9184C18.4535 22.9184 18.7137 22.9102 19.5837 22.8707C20.3885 22.8342 20.825 22.7008 21.116 22.5883C21.5008 22.4392 21.776 22.2626 22.0648 21.9757C22.3385 21.7111 22.5493 21.3884 22.6813 21.0329C22.7945 20.7438 22.9288 20.31 22.9655 19.5104C23.0052 18.6459 23.0135 18.3866 23.0135 16.1978C23.0135 14.009 23.0052 13.7496 22.9655 12.8851C22.9288 12.0855 22.7945 11.6517 22.6813 11.3626C22.5313 10.9803 22.3535 10.7067 22.0648 10.4198C21.7984 10.1479 21.4743 9.93855 21.116 9.80723C20.825 9.6947 20.3885 9.5613 19.5837 9.52478ZM15.1962 18.7249C15.7847 18.9683 16.44 19.0012 17.0502 18.8178C17.6604 18.6345 18.1875 18.2464 18.5417 17.7197C18.8959 17.1931 19.055 16.5606 18.992 15.9303C18.929 15.3 18.6478 14.711 18.1962 14.2638C17.9084 13.978 17.5604 13.7592 17.1772 13.623C16.7941 13.4869 16.3853 13.4369 15.9804 13.4766C15.5754 13.5162 15.1844 13.6447 14.8354 13.8525C14.4863 14.0604 14.1881 14.3426 13.962 14.6788C13.7359 15.015 13.5876 15.3968 13.5279 15.7968C13.4681 16.1967 13.4984 16.6049 13.6164 16.9918C13.7344 17.3788 13.9374 17.7349 14.2105 18.0346C14.4837 18.3343 14.8204 18.57 15.1962 18.7249ZM13.2515 13.2182C13.6453 12.827 14.1127 12.5166 14.6272 12.3048C15.1417 12.0931 15.6931 11.9841 16.25 11.9841C16.8069 11.9841 17.3583 12.0931 17.8728 12.3048C18.3873 12.5166 18.8547 12.827 19.2485 13.2182C19.6423 13.6095 19.9546 14.074 20.1677 14.5853C20.3808 15.0965 20.4905 15.6444 20.4905 16.1978C20.4905 16.7511 20.3808 17.299 20.1677 17.8103C19.9546 18.3215 19.6423 18.786 19.2485 19.1773C18.4532 19.9675 17.3747 20.4114 16.25 20.4114C15.1253 20.4114 14.0468 19.9675 13.2515 19.1773C12.4562 18.387 12.0095 17.3153 12.0095 16.1978C12.0095 15.0802 12.4562 14.0085 13.2515 13.2182ZM21.431 12.6116C21.5286 12.5201 21.6067 12.4102 21.6607 12.2882C21.7148 12.1661 21.7436 12.0346 21.7456 11.9013C21.7475 11.7681 21.7225 11.6357 21.6721 11.5122C21.6217 11.3887 21.5468 11.2765 21.452 11.1822C21.3571 11.088 21.2442 11.0136 21.1199 10.9635C20.9956 10.9134 20.8624 10.8886 20.7283 10.8905C20.5942 10.8925 20.4618 10.9211 20.339 10.9748C20.2162 11.0285 20.1055 11.1061 20.0135 11.2031C19.8345 11.3917 19.7365 11.6421 19.7403 11.9013C19.7441 12.1605 19.8494 12.4081 20.0339 12.5914C20.2183 12.7747 20.4674 12.8793 20.7283 12.8831C20.9892 12.8869 21.2412 12.7895 21.431 12.6116Z" fill="white"/>
</svg>
