<svg width="32" height="32" viewBox="0 0 32 32" fill="none" xmlns="http://www.w3.org/2000/svg">
<circle cx="16" cy="16" r="16" fill="white" fill-opacity="0.2"/>
<path d="M15.5002 14.2869C14.2817 14.2869 13.2872 15.2814 13.2872 16.4999C13.2872 17.7185 14.2817 18.7129 15.5002 18.7129C16.7188 18.7129 17.7132 17.7185 17.7132 16.4999C17.7132 15.2814 16.7188 14.2869 15.5002 14.2869ZM22.1375 16.4999C22.1375 15.5835 22.1458 14.6754 22.0944 13.7606C22.0429 12.6981 21.8005 11.7552 21.0236 10.9782C20.2449 10.1996 19.3036 9.95889 18.2411 9.90743C17.3247 9.85596 16.4166 9.86426 15.5019 9.86426C14.5855 9.86426 13.6774 9.85596 12.7626 9.90743C11.7001 9.95889 10.7571 10.2013 9.98018 10.9782C9.20157 11.7568 8.96085 12.6981 8.90938 13.7606C8.85792 14.6771 8.86622 15.5852 8.86622 16.4999C8.86622 17.4146 8.85792 18.3244 8.90938 19.2392C8.96085 20.3017 9.20323 21.2446 9.98018 22.0216C10.7588 22.8002 11.7001 23.0409 12.7626 23.0924C13.679 23.1438 14.5871 23.1355 15.5019 23.1355C16.4183 23.1355 17.3264 23.1438 18.2411 23.0924C19.3036 23.0409 20.2466 22.7985 21.0236 22.0216C21.8022 21.243 22.0429 20.3017 22.0944 19.2392C22.1475 18.3244 22.1375 17.4163 22.1375 16.4999ZM15.5002 19.9049C13.6159 19.9049 12.0952 18.3842 12.0952 16.4999C12.0952 14.6156 13.6159 13.0949 15.5002 13.0949C17.3845 13.0949 18.9052 14.6156 18.9052 16.4999C18.9052 18.3842 17.3845 19.9049 15.5002 19.9049ZM19.0446 13.7507C18.6047 13.7507 18.2494 13.3954 18.2494 12.9555C18.2494 12.5155 18.6047 12.1603 19.0446 12.1603C19.4846 12.1603 19.8399 12.5155 19.8399 12.9555C19.84 13.0599 19.8195 13.1634 19.7796 13.2599C19.7397 13.3565 19.6811 13.4442 19.6072 13.5181C19.5334 13.5919 19.4457 13.6505 19.3491 13.6904C19.2526 13.7303 19.1491 13.7508 19.0446 13.7507Z" fill="white"/>
</svg>
