<svg width="32" height="32" viewBox="0 0 32 32" fill="none" xmlns="http://www.w3.org/2000/svg">
<circle cx="16" cy="16" r="16" fill="white" fill-opacity="0.2"/>
<path d="M24.747 11.4974C24.1555 11.7595 23.5202 11.9366 22.8522 12.0167C23.5414 11.6043 24.057 10.9552 24.3029 10.1906C23.6553 10.5752 22.9467 10.8459 22.2076 10.991C21.7106 10.4603 21.0524 10.1086 20.335 9.99044C19.6177 9.87226 18.8814 9.99421 18.2404 10.3374C17.5995 10.6805 17.0897 11.2257 16.7904 11.8882C16.491 12.5508 16.4188 13.2936 16.5849 14.0014C15.2728 13.9355 13.9893 13.5945 12.8175 13.0005C11.6458 12.4064 10.6121 11.5726 9.78345 10.5532C9.50012 11.042 9.3372 11.6087 9.3372 12.2122C9.33688 12.7554 9.47067 13.2904 9.7267 13.7696C9.98272 14.2488 10.3531 14.6573 10.8049 14.9591C10.2809 14.9424 9.76848 14.8008 9.31028 14.5461V14.5886C9.31023 15.3506 9.57381 16.0891 10.0563 16.6789C10.5388 17.2687 11.2104 17.6734 11.9573 17.8243C11.4713 17.9558 10.9616 17.9752 10.467 17.8809C10.6777 18.5366 11.0882 19.1099 11.641 19.5207C12.1937 19.9314 12.8611 20.1591 13.5497 20.1717C12.3808 21.0893 10.9372 21.587 9.45124 21.5848C9.18801 21.5849 8.925 21.5695 8.66357 21.5388C10.172 22.5086 11.9278 23.0233 13.7211 23.0213C19.7915 23.0213 23.11 17.9936 23.11 13.6331C23.11 13.4914 23.1065 13.3483 23.1001 13.2067C23.7456 12.7398 24.3028 12.1618 24.7456 11.4996L24.747 11.4974Z" fill="white"/>
</svg>
