<svg width="32" height="32" viewBox="0 0 32 32" fill="none" xmlns="http://www.w3.org/2000/svg">
<path d="M24.7465 11.4974C24.155 11.7595 23.5197 11.9366 22.8517 12.0167C23.5409 11.6043 24.0565 10.9552 24.3024 10.1906C23.6549 10.5752 22.9462 10.8459 22.2071 10.991C21.7101 10.4603 21.0519 10.1086 20.3345 9.99044C19.6172 9.87226 18.8809 9.99421 18.2399 10.3374C17.599 10.6805 17.0893 11.2257 16.7899 11.8882C16.4905 12.5508 16.4183 13.2936 16.5844 14.0014C15.2723 13.9355 13.9888 13.5945 12.8171 13.0005C11.6453 12.4064 10.6116 11.5726 9.78296 10.5532C9.49963 11.042 9.33671 11.6087 9.33671 12.2122C9.33639 12.7554 9.47018 13.2904 9.72621 13.7696C9.98223 14.2488 10.3526 14.6573 10.8044 14.9591C10.2804 14.9424 9.768 14.8008 9.30979 14.5461V14.5886C9.30974 15.3506 9.57332 16.0891 10.0558 16.6789C10.5383 17.2687 11.2099 17.6734 11.9568 17.8243C11.4708 17.9558 10.9612 17.9752 10.4665 17.8809C10.6772 18.5366 11.0877 19.1099 11.6405 19.5207C12.1932 19.9314 12.8606 20.1591 13.5492 20.1717C12.3803 21.0893 10.9368 21.587 9.45075 21.5848C9.18752 21.5849 8.92451 21.5695 8.66309 21.5388C10.1715 22.5086 11.9273 23.0233 13.7206 23.0213C19.791 23.0213 23.1095 17.9936 23.1095 13.6331C23.1095 13.4914 23.106 13.3483 23.0996 13.2067C23.7451 12.7398 24.3023 12.1618 24.7451 11.4996L24.7465 11.4974V11.4974Z" fill="white"/>
<circle cx="16" cy="16" r="16" fill="white" fill-opacity="0.2"/>
</svg>
