<svg width="32" height="32" viewBox="0 0 32 32" fill="none" xmlns="http://www.w3.org/2000/svg">
<circle cx="16" cy="16" r="16" fill="white" fill-opacity="0.2"/>
<g clip-path="url(#clip0_1318_3561)">
<path d="M24.6453 12.6089C24.549 12.2655 24.3615 11.9546 24.1027 11.7093C23.8366 11.4564 23.5104 11.2756 23.155 11.1837C21.8247 10.8331 16.4952 10.8331 16.4952 10.8331C14.2734 10.8078 12.0521 10.919 9.84396 11.166C9.48851 11.2646 9.16294 11.4496 8.89621 11.7044C8.63413 11.9565 8.44429 12.2675 8.34513 12.6082C8.10691 13.8915 7.99117 15.1946 7.99946 16.4998C7.99096 17.8038 8.10642 19.1064 8.34513 20.3914C8.44217 20.7306 8.63129 21.0402 8.89409 21.2902C9.15688 21.5403 9.48413 21.7209 9.84396 21.8165C11.1919 22.1664 16.4952 22.1664 16.4952 22.1664C18.7198 22.1917 20.9439 22.0806 23.155 21.8335C23.5104 21.7417 23.8366 21.5608 24.1027 21.3079C24.3648 21.0579 24.5511 20.7469 24.6446 20.4084C24.889 19.1255 25.0079 17.8219 24.9995 16.5161C25.0178 15.2047 24.8991 13.8949 24.6453 12.6082V12.6089ZM14.8009 18.9251V14.0751L19.235 16.5005L14.8009 18.9251Z" fill="white"/>
</g>
<defs>
<clipPath id="clip0_1318_3561">
<rect width="17" height="17" fill="white" transform="translate(8 8)"/>
</clipPath>
</defs>
</svg>
