<svg width="32" height="32" viewBox="0 0 32 32" fill="none" xmlns="http://www.w3.org/2000/svg">
<circle cx="16" cy="16" r="16" fill="white" fill-opacity="0.2"/>
<g clip-path="url(#clip0_1313_2879)">
<path d="M24.6458 12.6089C24.5495 12.2655 24.362 11.9546 24.1032 11.7093C23.8371 11.4564 23.5109 11.2756 23.1554 11.1837C21.8252 10.8331 16.4957 10.8331 16.4957 10.8331C14.2739 10.8078 12.0526 10.919 9.84445 11.166C9.489 11.2646 9.16343 11.4496 8.8967 11.7044C8.63462 11.9565 8.44478 12.2675 8.34562 12.6082C8.1074 13.8915 7.99166 15.1946 7.99995 16.4998C7.99145 17.8038 8.10691 19.1064 8.34562 20.3914C8.44266 20.7306 8.63178 21.0402 8.89457 21.2902C9.15737 21.5403 9.48462 21.7209 9.84445 21.8165C11.1924 22.1664 16.4957 22.1664 16.4957 22.1664C18.7203 22.1917 20.9444 22.0806 23.1554 21.8335C23.5109 21.7417 23.8371 21.5608 24.1032 21.3079C24.3653 21.0579 24.5516 20.7469 24.6451 20.4084C24.8895 19.1255 25.0084 17.8219 24.9999 16.5161C25.0183 15.2047 24.8996 13.8949 24.6458 12.6082V12.6089ZM14.8014 18.9251V14.0751L19.2355 16.5005L14.8014 18.9251Z" fill="white"/>
</g>
<defs>
<clipPath id="clip0_1313_2879">
<rect width="17" height="17" fill="white" transform="translate(8 8)"/>
</clipPath>
</defs>
</svg>
